<?xml version="1.0" encoding="UTF-8" standalone="no"?><!DOCTYPE svg PUBLIC "-//W3C//DTD SVG 1.1//EN" "http://www.w3.org/Graphics/SVG/1.1/DTD/svg11.dtd"><svg width="100%" height="100%" viewBox="0 0 596 200" version="1.1" xmlns="http://www.w3.org/2000/svg" xmlns:xlink="http://www.w3.org/1999/xlink" xml:space="preserve" xmlns:serif="http://www.serif.com/" style="fill-rule:evenodd;clip-rule:evenodd;stroke-linejoin:round;stroke-miterlimit:2;"><g id="Layer-1" serif:id="Layer 1"><g id="text452"></g><g id="g2876"><path id="path2864" d="M252.4,27.539c-4.143,-0 -7.99,1.188 -11.699,3.29c-3.605,2.043 -6.617,4.73 -8.774,8.409c-1.987,3.39 -2.925,7.19 -2.925,11.333c0,4.144 0.83,8.125 2.925,11.699c2.052,3.5 5.065,6.307 8.774,8.409c1.315,0.745 2.676,1.333 4.076,1.783l-0,28.983l15.245,0.844l-0,-29.827c1.4,-0.45 2.763,-1.037 4.079,-1.783c3.709,-2.102 6.421,-5.018 8.408,-8.409c2.157,-3.678 3.291,-7.555 3.291,-11.699c-0,-4.143 -1.239,-7.834 -3.291,-11.333c-2.095,-3.575 -4.803,-6.366 -8.408,-8.409c-3.71,-2.102 -7.557,-3.29 -11.701,-3.29Zm0,12.593c1.878,0 3.646,0.497 5.303,1.491c1.657,0.884 2.928,2.155 3.811,3.812c0.995,1.547 1.492,3.258 1.492,5.136c-0,1.878 -0.497,3.646 -1.492,5.303c-0.883,1.547 -2.154,2.818 -3.811,3.812c-1.657,0.884 -3.425,1.325 -5.303,1.325c-1.878,-0 -3.646,-0.441 -5.303,-1.325c-1.657,-0.994 -2.982,-2.265 -3.976,-3.812c-0.884,-1.657 -1.325,-3.425 -1.325,-5.303c0,-1.878 0.441,-3.589 1.325,-5.136c0.994,-1.657 2.319,-2.928 3.976,-3.812c1.657,-0.994 3.425,-1.491 5.303,-1.491Zm7.622,88.325l-15.245,0.626l-0,43.378l15.245,0l-0,-44.004Z" style="fill:#fff;fill-rule:nonzero;"/><path id="path2909" d="M218.396,73.72c-1.878,-0 -3.645,0.497 -5.302,1.491c-1.657,0.884 -2.982,2.154 -3.977,3.812c-0.883,1.546 -1.324,3.258 -1.324,5.136c-0,1.878 0.441,3.646 1.324,5.303c0.995,1.546 2.32,2.817 3.977,3.811c1.657,0.884 3.424,1.325 5.302,1.325c1.878,0 3.646,-0.441 5.303,-1.325c1.657,-0.994 2.928,-2.265 3.812,-3.811c0.994,-1.657 1.491,-3.425 1.491,-5.303c-0,-1.878 -0.497,-3.59 -1.491,-5.136c-0.884,-1.658 -2.155,-2.928 -3.812,-3.812c-1.657,-0.994 -3.425,-1.491 -5.303,-1.491Z" style="fill:#fff;fill-rule:nonzero;"/><path id="path2866" d="M35.792,65.085c8.506,0 15.742,1.381 21.707,4.143c5.966,2.651 10.44,6.462 13.422,11.433c2.983,4.861 4.474,10.55 4.474,17.068c0,6.518 -1.546,12.428 -4.639,17.73c-2.983,5.303 -7.568,9.556 -13.754,12.759c-6.076,3.094 -13.588,4.64 -22.536,4.64l-19.221,0l-0,39.603l-15.245,0l-0,-107.376l35.792,0Zm-2.486,54.848c8.728,0 15.245,-1.878 19.554,-5.634c4.418,-3.756 6.628,-9.058 6.628,-15.907c-0,-6.628 -2.044,-11.655 -6.131,-15.079c-3.977,-3.535 -9.943,-5.303 -17.896,-5.303l-20.216,0l-0,41.923l18.061,0Z" style="fill:#fff;fill-rule:nonzero;"/><path id="path2868" d="M176.143,171.467l0,0.994l-17.564,0l-30.987,-41.923l-15.907,0l-0,41.923l-15.245,0l-0,-107.376l34.963,0c8.396,0 15.466,1.326 21.21,3.977c5.855,2.651 10.219,6.352 13.091,11.102c2.983,4.75 4.474,10.274 4.474,16.571c0,5.081 -0.994,9.776 -2.983,14.084c-1.878,4.309 -4.75,8.065 -8.616,11.268c-3.867,3.093 -8.672,5.358 -14.416,6.794l31.98,42.586Zm-64.458,-53.522l17.398,-0c8.286,-0 14.527,-1.768 18.725,-5.303c4.308,-3.645 6.462,-8.727 6.462,-15.245c0,-6.296 -1.988,-11.102 -5.965,-14.416c-3.866,-3.314 -9.611,-4.971 -17.233,-4.971l-19.387,0l-0,39.935Z" style="fill:#fff;fill-rule:nonzero;"/><path id="path2870" d="M343.902,159.536l52.694,0l0,12.925l-67.938,0l-0,-107.376l67.938,0l0,12.925l-52.694,0l0,33.472l43.746,0l0,12.594l-43.746,-0l0,35.46Z" style="fill:#fff;fill-rule:nonzero;"/><path id="path2872" d="M449.953,65.085c18.228,0 32.147,4.253 41.757,12.759c9.722,8.507 14.582,22.15 14.582,40.929c0,12.041 -2.485,22.094 -7.456,30.158c-4.861,7.954 -11.71,13.864 -20.548,17.731c-8.837,3.866 -19.221,5.799 -31.152,5.799l-29.495,0l-0,-107.376l32.312,0Zm-4.64,94.451c9.722,0 17.841,-1.159 24.359,-3.479c6.518,-2.32 11.599,-6.463 15.245,-12.428c3.645,-5.965 5.468,-14.251 5.468,-24.856c-0,-14.029 -3.259,-24.303 -9.777,-30.821c-6.517,-6.628 -16.625,-9.942 -30.324,-9.942l-17.398,0l-0,81.526l12.427,0Z" style="fill:#fff;fill-rule:nonzero;"/><path id="path2874" d="M542.582,159.536l52.694,0l-0,12.925l-67.939,0l-0,-107.376l67.939,0l-0,12.925l-52.694,0l-0,33.472l43.746,0l-0,12.594l-43.746,-0l-0,35.46Z" style="fill:#fff;fill-rule:nonzero;"/><path id="path2886" d="M252.4,90.397c-4.144,0 -7.99,1.188 -11.699,3.29c-3.605,2.043 -6.618,4.731 -8.774,8.409c-1.988,3.391 -2.925,7.191 -2.925,11.334c-0,4.144 0.83,8.124 2.925,11.699c2.051,3.5 5.064,6.307 8.774,8.409c3.605,2.043 7.555,2.925 11.699,2.925c4.143,-0 8.095,-0.882 11.7,-2.925c3.71,-2.102 6.421,-5.018 8.409,-8.409c2.156,-3.678 3.29,-7.555 3.29,-11.699c0,-4.143 -1.239,-7.834 -3.29,-11.334c-2.095,-3.575 -4.804,-6.366 -8.409,-8.409c-3.709,-2.102 -7.557,-3.29 -11.7,-3.29Zm-0,12.594c1.878,-0 3.645,0.497 5.302,1.491c0.883,0.471 1.656,1.051 2.319,1.741c0.582,0.606 1.08,1.296 1.493,2.071c0.994,1.546 1.491,3.258 1.491,5.136c0,1.878 -0.497,3.646 -1.491,5.303c-0.884,1.546 -2.154,2.817 -3.812,3.811c-1.657,0.884 -3.424,1.325 -5.302,1.325c-1.878,0 -3.646,-0.441 -5.303,-1.325c-1.657,-0.994 -2.982,-2.265 -3.976,-3.811c-0.884,-1.657 -1.325,-3.425 -1.325,-5.303c-0,-1.878 0.441,-3.59 1.325,-5.136c0.994,-1.658 2.319,-2.928 3.976,-3.812c1.657,-0.994 3.425,-1.491 5.303,-1.491Z" style="fill:#fff;fill-rule:nonzero;"/><path id="path3140" d="M286.403,73.72c-1.878,-0 -3.646,0.497 -5.303,1.491c-1.657,0.884 -2.982,2.154 -3.976,3.812c-0.884,1.546 -1.325,3.258 -1.325,5.136c0,1.878 0.441,3.646 1.325,5.303c0.994,1.546 2.319,2.817 3.976,3.811c1.657,0.884 3.425,1.325 5.303,1.325c1.878,0 3.646,-0.441 5.303,-1.325c1.657,-0.994 2.928,-2.265 3.811,-3.811c0.995,-1.657 1.492,-3.425 1.492,-5.303c-0,-1.878 -0.497,-3.59 -1.492,-5.136c-0.883,-1.658 -2.154,-2.928 -3.811,-3.812c-1.657,-0.994 -3.425,-1.491 -5.303,-1.491Z" style="fill:#fff;fill-rule:nonzero;"/><path id="path3146" d="M207.792,102.991c-1.878,-0 -3.646,0.497 -5.303,1.491c-1.657,0.884 -2.982,2.154 -3.976,3.812c-0.884,1.546 -1.325,3.258 -1.325,5.136c-0,1.878 0.441,3.646 1.325,5.303c0.994,1.546 2.319,2.817 3.976,3.811c1.657,0.884 3.425,1.325 5.303,1.325c1.878,0 3.645,-0.441 5.302,-1.325c1.658,-0.994 2.928,-2.265 3.812,-3.811c0.994,-1.657 1.491,-3.425 1.491,-5.303c0,-1.878 -0.497,-3.59 -1.491,-5.136c-0.884,-1.658 -2.154,-2.928 -3.812,-3.812c-1.657,-0.994 -3.424,-1.491 -5.302,-1.491Z" style="fill:#fff;fill-rule:nonzero;"/><path id="path3146-9" d="M218.398,132.262c1.878,-0 3.646,0.497 5.303,1.491c1.657,0.884 2.982,2.154 3.976,3.812c0.884,1.546 1.325,3.258 1.325,5.136c-0,1.878 -0.441,3.646 -1.325,5.303c-0.994,1.546 -2.319,2.817 -3.976,3.811c-1.657,0.884 -3.425,1.325 -5.303,1.325c-1.878,0 -3.646,-0.441 -5.303,-1.325c-1.657,-0.994 -2.928,-2.265 -3.811,-3.811c-0.995,-1.657 -1.491,-3.425 -1.491,-5.303c-0,-1.878 0.496,-3.59 1.491,-5.136c0.883,-1.658 2.154,-2.928 3.811,-3.812c1.657,-0.994 3.425,-1.491 5.303,-1.491Z" style="fill:#fff;fill-rule:nonzero;"/><path id="path3148" d="M297.008,102.991c-1.878,-0 -3.646,0.497 -5.303,1.491c-1.657,0.884 -2.982,2.154 -3.976,3.812c-0.884,1.546 -1.325,3.258 -1.325,5.136c-0,1.878 0.441,3.646 1.325,5.303c0.994,1.546 2.319,2.817 3.976,3.811c1.657,0.884 3.425,1.325 5.303,1.325c1.878,0 3.645,-0.441 5.302,-1.325c1.658,-0.994 2.928,-2.265 3.812,-3.811c0.994,-1.657 1.491,-3.425 1.491,-5.303c0,-1.878 -0.497,-3.59 -1.491,-5.136c-0.884,-1.658 -2.154,-2.928 -3.812,-3.812c-1.657,-0.994 -3.424,-1.491 -5.302,-1.491Z" style="fill:#fff;fill-rule:nonzero;"/><path id="path3181" d="M286.403,132.262c-1.878,-0 -3.646,0.497 -5.303,1.491c-1.657,0.884 -2.982,2.154 -3.976,3.812c-0.884,1.546 -1.325,3.258 -1.325,5.136c0,1.878 0.441,3.646 1.325,5.303c0.994,1.546 2.319,2.817 3.976,3.811c1.657,0.884 3.425,1.325 5.303,1.325c1.878,0 3.646,-0.441 5.303,-1.325c1.657,-0.994 2.928,-2.265 3.811,-3.811c0.995,-1.657 1.492,-3.425 1.492,-5.303c-0,-1.878 -0.497,-3.59 -1.492,-5.136c-0.883,-1.658 -2.154,-2.928 -3.811,-3.812c-1.657,-0.994 -3.425,-1.491 -5.303,-1.491Z" style="fill:#fff;fill-rule:nonzero;"/></g></g></svg>