<?xml version="1.0" encoding="UTF-8" standalone="no"?>
<!-- Created with Inkscape (http://www.inkscape.org/) -->

<svg
   width="210mm"
   height="297mm"
   viewBox="0 0 210 297"
   version="1.1"
   id="svg5"
   inkscape:version="1.2.1 (9c6d41e410, 2022-07-14)"
   sodipodi:docname="priede.svg"
   xmlns:inkscape="http://www.inkscape.org/namespaces/inkscape"
   xmlns:sodipodi="http://sodipodi.sourceforge.net/DTD/sodipodi-0.dtd"
   xmlns="http://www.w3.org/2000/svg"
   xmlns:svg="http://www.w3.org/2000/svg">
  <sodipodi:namedview
     id="namedview7"
     pagecolor="#ffffff"
     bordercolor="#000000"
     borderopacity="0.25"
     inkscape:showpageshadow="2"
     inkscape:pageopacity="0.0"
     inkscape:pagecheckerboard="0"
     inkscape:deskcolor="#d1d1d1"
     inkscape:document-units="mm"
     showgrid="false"
     inkscape:zoom="0.35355339"
     inkscape:cx="-14.142136"
     inkscape:cy="636.3961"
     inkscape:window-width="1920"
     inkscape:window-height="1027"
     inkscape:window-x="-8"
     inkscape:window-y="-8"
     inkscape:window-maximized="1"
     inkscape:current-layer="layer1" />
  <defs
     id="defs2" />
  <g
     inkscape:label="Layer 1"
     inkscape:groupmode="layer"
     id="layer1">
    <text
       xml:space="preserve"
       style="font-style:normal;font-variant:normal;font-weight:normal;font-stretch:normal;font-size:1.51694px;font-family:Dubai;-inkscape-font-specification:Dubai;fill:#000000;stroke-width:2;paint-order:markers stroke fill"
       x="84.614906"
       y="133.90091"
       id="text452"><tspan
         sodipodi:role="line"
         id="tspan450"
         style="stroke-width:2"
         x="84.614906"
         y="133.90091" /></text>
    <g
       id="g3211"
       transform="translate(6.6613819,63.14357)" />
    <rect
       style="fill:#006259;fill-opacity:1;stroke-width:2;paint-order:markers stroke fill"
       id="rect3278"
       width="210"
       height="96.163574"
       x="-0.000206"
       y="0" />
    <path
       id="path4008"
       style="font-size:52.5464px;font-family:Dubai;-inkscape-font-specification:Dubai;fill:#000000;fill-opacity:1;stroke-width:108.051;paint-order:markers stroke fill"
       d="M 94.859326 105.3052 C 93.930521 105.3052 93.068221 105.57144 92.236747 106.04262 C 91.428649 106.50055 90.753276 107.10274 90.269942 107.92726 C 89.824422 108.68728 89.614685 109.53939 89.614685 110.46819 C 89.614685 111.397 89.800232 112.28899 90.269942 113.09025 C 90.729808 113.87475 91.405216 114.50421 92.236747 114.97541 C 92.531483 115.14243 92.836667 115.27402 93.150387 115.37487 L 93.150387 121.87163 L 96.567749 122.06077 L 96.567749 115.37539 C 96.881938 115.2745 97.187338 115.14263 97.482422 114.97541 C 98.313939 114.50422 98.921526 113.85029 99.367061 113.09025 C 99.850381 112.26579 100.10448 111.397 100.10448 110.46819 C 100.10448 109.53939 99.826912 108.71173 99.367061 107.92726 C 98.897336 107.12595 98.290512 106.50053 97.482422 106.04262 C 96.650924 105.57144 95.78814 105.3052 94.859326 105.3052 z M 94.859326 108.00891 C 95.311905 108.00891 95.737956 108.12899 96.137284 108.36858 C 96.536624 108.58156 96.843123 108.88752 97.056091 109.28687 C 97.295702 109.65958 97.415243 110.07246 97.415243 110.52504 C 97.415243 110.9776 97.295701 111.40368 97.056091 111.80299 C 96.843123 112.17571 96.536624 112.48168 96.137284 112.72128 C 95.737947 112.93424 95.311905 113.04065 94.859326 113.04065 C 94.406767 113.04065 93.980688 112.93426 93.581368 112.72128 C 93.182018 112.48168 92.862897 112.17571 92.623287 111.80299 C 92.410327 111.40367 92.303927 110.9776 92.303927 110.52504 C 92.303927 110.07246 92.410317 109.65958 92.623287 109.28687 C 92.862897 108.88752 93.182018 108.58157 93.581368 108.36858 C 93.980699 108.12899 94.406767 108.00891 94.859326 108.00891 z M 96.567749 129.47013 L 93.150387 129.61069 L 93.150387 139.44679 L 96.567749 139.44679 L 96.567749 129.47013 z " />
    <path
       d="m 87.237137,117.31286 c -0.420966,0 -0.817229,0.11138 -1.18867,0.33424 -0.371454,0.19812 -0.668451,0.48297 -0.891318,0.85443 -0.198097,0.34668 -0.296985,0.73044 -0.296985,1.15141 0,0.42096 0.09889,0.81722 0.296985,1.18866 0.222867,0.3467 0.519864,0.63156 0.891318,0.85443 0.371434,0.1981 0.767704,0.29698 1.18867,0.29698 0.420973,0 0.81722,-0.0989 1.188668,-0.29698 0.371448,-0.22287 0.656326,-0.50773 0.854423,-0.85443 0.222875,-0.37142 0.334245,-0.7677 0.334245,-1.18866 0,-0.42097 -0.11137,-0.80473 -0.334245,-1.15141 -0.198097,-0.37147 -0.482975,-0.65632 -0.854423,-0.85443 -0.371441,-0.22286 -0.767695,-0.33424 -1.188668,-0.33424 z"
       style="font-size:52.5464px;font-family:Dubai;-inkscape-font-specification:Dubai;fill:#000000;fill-opacity:1;stroke-width:108.051;paint-order:markers stroke fill"
       id="path4010" />
    <path
       d="m 46.304302,115.37732 q 2.860121,0 4.86592,0.92861 2.005799,0.89147 3.008698,2.56296 1.0029,1.63436 1.0029,3.82588 0,2.19152 -1.040044,3.97445 -1.0029,1.78294 -3.082987,2.86012 -2.042944,1.04005 -5.051642,1.04005 h -4.308753 v 8.87752 h -3.417287 v -24.06959 z m -0.557166,12.2948 q 2.93441,0 4.383042,-1.26291 1.485777,-1.26291 1.485777,-3.56586 0,-2.22867 -1.374344,-3.38014 -1.337199,-1.18863 -4.011598,-1.18863 h -4.531619 v 9.39754 z"
       id="path4012"
       style="font-size:52.5464px;font-family:Dubai;-inkscape-font-specification:Dubai;fill:#000000;fill-opacity:1;stroke-width:48.9729;paint-order:markers stroke fill" />
    <path
       d="m 77.765649,139.22404 v 0.22287 H 73.82834 l -6.946008,-9.39755 h -3.565864 v 9.39755 h -3.417287 v -24.06959 h 7.837474 q 2.822976,0 4.754486,0.89147 1.968655,0.89146 2.93441,2.48867 1.002899,1.59721 1.002899,3.71445 0,1.70864 -0.668599,3.15727 -0.631456,1.44863 -1.931511,2.52582 -1.300055,1.04004 -3.231565,1.52292 z M 63.316468,127.22639 h 3.900165 q 2.785832,0 4.19732,-1.18862 1.448633,-1.22577 1.448633,-3.41729 0,-2.11723 -1.3372,-3.23157 -1.300055,-1.11433 -3.86302,-1.11433 h -4.345898 z"
       id="path4014"
       style="font-size:52.5464px;font-family:Dubai;-inkscape-font-specification:Dubai;fill:#000000;fill-opacity:1;stroke-width:48.9729;paint-order:markers stroke fill" />
    <path
       d="m 115.37075,136.54964 h 11.81193 v 2.89727 h -15.22922 v -24.06959 h 15.22922 v 2.89726 h -11.81193 v 7.50317 h 9.80613 v 2.82298 h -9.80613 z"
       id="path4016"
       style="font-size:52.5464px;font-family:Dubai;-inkscape-font-specification:Dubai;fill:#000000;fill-opacity:1;stroke-width:48.9729;paint-order:markers stroke fill"
       sodipodi:nodetypes="ccccccccccccc" />
    <path
       d="m 139.14321,115.37732 q 6.12883,0 9.36039,2.86012 3.26871,2.86012 3.26871,9.17467 0,4.04874 -1.6715,6.76029 -1.63435,2.67439 -4.60591,3.97445 -2.97155,1.30006 -6.98315,1.30006 h -6.61171 v -24.06959 z m -1.04005,21.17232 q 3.26871,0 5.46023,-0.78003 2.19152,-0.78004 3.41729,-2.78583 1.22576,-2.0058 1.22576,-5.57167 0,-4.71734 -2.19152,-6.90886 -2.19151,-2.22867 -6.79743,-2.22867 h -3.90016 v 18.27506 z"
       id="path4018"
       style="font-size:52.5464px;font-family:Dubai;-inkscape-font-specification:Dubai;fill:#000000;fill-opacity:1;stroke-width:48.9729;paint-order:markers stroke fill" />
    <path
       d="m 159.90696,136.54964 h 11.81193 v 2.89727 h -15.22921 v -24.06959 h 15.22921 v 2.89726 h -11.81193 v 7.50317 h 9.80613 v 2.82298 h -9.80613 z"
       id="path4020"
       style="font-size:52.5464px;font-family:Dubai;-inkscape-font-specification:Dubai;fill:#000000;fill-opacity:1;stroke-width:48.9729;paint-order:markers stroke fill"
       sodipodi:nodetypes="ccccccccccccc" />
    <path
       id="path4022"
       style="font-size:52.5464px;font-family:Dubai;-inkscape-font-specification:Dubai;fill:#000000;fill-opacity:1;stroke-width:108.051;paint-order:markers stroke fill"
       d="M 94.859326 121.22464 C 93.93052 121.22464 93.068222 121.49088 92.236747 121.96206 C 91.428648 122.41999 90.753276 123.02218 90.269942 123.8467 C 89.824421 124.60672 89.614685 125.45883 89.614685 126.38763 C 89.614685 127.31644 89.800231 128.20843 90.269942 129.0097 C 90.729808 129.7942 91.405215 130.42365 92.236747 130.89485 C 93.04481 131.35277 93.93052 131.55063 94.859326 131.55063 C 95.788141 131.55063 96.674342 131.35277 97.482422 130.89485 C 98.31394 130.42366 98.921525 129.76974 99.367061 129.0097 C 99.850381 128.18523 100.10448 127.31644 100.10448 126.38763 C 100.10448 125.45883 99.826912 124.63117 99.367061 123.8467 C 98.897335 123.04539 98.290513 122.41997 97.482422 121.96206 C 96.650923 121.49088 95.788141 121.22464 94.859326 121.22464 z M 94.859326 123.92835 C 95.311905 123.92835 95.737955 124.04843 96.137284 124.28802 C 96.536624 124.501 96.843122 124.80696 97.056091 125.20631 C 97.295702 125.57902 97.415243 125.9919 97.415243 126.44448 C 97.415243 126.89704 97.295701 127.32312 97.056091 127.72244 C 96.843122 128.09516 96.536624 128.40112 96.137284 128.64073 C 95.737946 128.85369 95.311905 128.96009 94.859326 128.96009 C 94.406766 128.96009 93.980688 128.85371 93.581368 128.64073 C 93.182018 128.40112 92.862897 128.09516 92.623287 127.72244 C 92.410327 127.32311 92.303927 126.89704 92.303927 126.44448 C 92.303927 125.9919 92.410317 125.57902 92.623287 125.20631 C 92.862897 124.80696 93.182018 124.50101 93.581368 124.28802 C 93.980699 124.04843 94.406766 123.92835 94.859326 123.92835 z " />
    <path
       d="m 102.48161,117.31286 c -0.42097,0 -0.81723,0.11138 -1.18867,0.33424 -0.37145,0.19812 -0.66845,0.48297 -0.89132,0.85443 -0.1981,0.34668 -0.29698,0.73044 -0.29698,1.15141 0,0.42096 0.0989,0.81722 0.29698,1.18866 0.22287,0.3467 0.51987,0.63156 0.89132,0.85443 0.37143,0.1981 0.7677,0.29698 1.18867,0.29698 0.42097,0 0.81722,-0.0989 1.18867,-0.29698 0.37145,-0.22287 0.65632,-0.50773 0.85442,-0.85443 0.22288,-0.37142 0.33425,-0.7677 0.33425,-1.18866 0,-0.42097 -0.11137,-0.80473 -0.33425,-1.15141 -0.1981,-0.37147 -0.48297,-0.65632 -0.85442,-0.85443 -0.37144,-0.22286 -0.7677,-0.33424 -1.18867,-0.33424 z"
       style="font-size:52.5464px;font-family:Dubai;-inkscape-font-specification:Dubai;fill:#000000;fill-opacity:1;stroke-width:108.051;paint-order:markers stroke fill"
       id="path4024" />
    <path
       d="m 87.237501,130.89566 c 0.420966,0 0.817229,0.11138 1.188669,0.33424 0.371455,0.19812 0.668452,0.48297 0.891319,0.85443 0.198097,0.34668 0.296984,0.73044 0.296984,1.1514 0,0.42097 -0.09889,0.81723 -0.296984,1.18867 -0.222867,0.3467 -0.519864,0.63156 -0.891319,0.85442 -0.371433,0.19811 -0.767703,0.29699 -1.188669,0.29699 -0.420973,0 -0.81722,-0.0989 -1.188668,-0.29699 -0.371448,-0.22286 -0.656326,-0.50772 -0.854424,-0.85442 -0.222874,-0.37143 -0.334245,-0.7677 -0.334245,-1.18867 0,-0.42096 0.111371,-0.80472 0.334245,-1.1514 0.198098,-0.37147 0.482976,-0.65632 0.854424,-0.85443 0.371441,-0.22286 0.767695,-0.33424 1.188668,-0.33424 z"
       style="font-size:52.5464px;font-family:Dubai;-inkscape-font-specification:Dubai;fill:#000000;fill-opacity:1;stroke-width:108.051;paint-order:markers stroke fill"
       id="path4028" />
    <path
       d="m 105.03723,123.92855 c -0.45256,0 -0.87858,0.11975 -1.27791,0.35934 -0.39935,0.21299 -0.71863,0.51923 -0.95824,0.91858 -0.21297,0.37271 -0.31929,0.78529 -0.31929,1.23787 0,0.45256 0.10633,0.87858 0.31929,1.27791 0.23961,0.37272 0.55889,0.67895 0.95824,0.91856 0.39932,0.21298 0.82535,0.31929 1.27791,0.31929 0.45258,0 0.87858,-0.10633 1.27792,-0.31929 0.39934,-0.23961 0.7056,-0.54584 0.91857,-0.91856 0.23961,-0.39932 0.35935,-0.82535 0.35935,-1.27791 0,-0.45258 -0.11974,-0.86516 -0.35935,-1.23787 -0.21297,-0.39935 -0.51923,-0.7056 -0.91857,-0.91858 -0.39933,-0.23959 -0.82534,-0.35934 -1.27792,-0.35934 z"
       style="font-size:52.5464px;font-family:Dubai;-inkscape-font-specification:Dubai;fill:#000000;fill-opacity:1;stroke-width:116.164;paint-order:markers stroke fill"
       id="path4030" />
    <path
       d="m 102.48161,130.89566 c -0.42097,0 -0.81723,0.11138 -1.18867,0.33424 -0.37146,0.19812 -0.66845,0.48297 -0.89132,0.85443 -0.1981,0.34668 -0.29698,0.73044 -0.29698,1.1514 0,0.42097 0.0989,0.81723 0.29698,1.18867 0.22287,0.3467 0.51987,0.63156 0.89132,0.85442 0.37143,0.19811 0.7677,0.29699 1.18867,0.29699 0.42097,0 0.81722,-0.0989 1.18867,-0.29699 0.37145,-0.22286 0.65632,-0.50772 0.85442,-0.85442 0.22288,-0.37143 0.33425,-0.7677 0.33425,-1.18867 0,-0.42096 -0.11137,-0.80472 -0.33425,-1.1514 -0.1981,-0.37147 -0.48298,-0.65632 -0.85442,-0.85443 -0.37144,-0.22286 -0.7677,-0.33424 -1.18867,-0.33424 z"
       style="font-size:52.5464px;font-family:Dubai;-inkscape-font-specification:Dubai;fill:#000000;fill-opacity:1;stroke-width:108.051;paint-order:markers stroke fill"
       id="path4032" />
    <path
       d="m 84.681563,123.92855 c -0.45256,0 -0.87858,0.11975 -1.27791,0.35934 -0.39935,0.21299 -0.71863,0.51923 -0.95824,0.91858 -0.21297,0.37271 -0.31929,0.78529 -0.31929,1.23787 0,0.45256 0.10633,0.87858 0.31929,1.27791 0.23961,0.37272 0.55889,0.67895 0.95824,0.91856 0.39932,0.21298 0.82535,0.31929 1.27791,0.31929 0.45258,0 0.87858,-0.10633 1.27792,-0.31929 0.39934,-0.23961 0.7056,-0.54584 0.91857,-0.91856 0.23961,-0.39932 0.35935,-0.82535 0.35935,-1.27791 0,-0.45258 -0.11974,-0.86516 -0.35935,-1.23787 -0.21297,-0.39935 -0.51923,-0.7056 -0.91857,-0.91858 -0.39933,-0.23959 -0.82534,-0.35934 -1.27792,-0.35934 z"
       style="font-size:52.5464px;font-family:Dubai;-inkscape-font-specification:Dubai;fill:#000000;fill-opacity:1;stroke-width:116.164;paint-order:markers stroke fill"
       id="path542" />
    <path
       id="path4008-5"
       style="font-size:52.5464px;font-family:Dubai;-inkscape-font-specification:Dubai;fill:#ffffff;fill-opacity:1;stroke-width:108.051;paint-order:markers stroke fill"
       d="m 94.859326,31.010997 c -0.928804,0 -1.791106,0.266243 -2.622579,0.737422 -0.808097,0.45793 -1.483471,1.060121 -1.966805,1.88464 -0.445519,0.760019 -0.655257,1.612131 -0.655257,2.54093 0,0.928809 0.185548,1.820803 0.655257,2.622062 0.459866,0.784499 1.135275,1.413957 1.966805,1.885156 0.294736,0.16702 0.59992,0.298609 0.91364,0.399459 v 6.160864 c -0.309619,0.113753 -0.613717,0.256371 -0.91364,0.426331 -0.808098,0.45793 -1.483471,1.06012 -1.966805,1.884639 -0.44552,0.76002 -0.655257,1.612132 -0.655257,2.540931 0,0.928809 0.185547,1.820793 0.655257,2.622062 0.459866,0.784499 1.135274,1.413957 1.966805,1.885156 0.294744,0.167028 0.599911,0.299129 0.91364,0.399976 v 8.151952 h 3.417362 v -8.151436 c 0.314197,-0.10089 0.619582,-0.233271 0.914673,-0.400492 0.831517,-0.471189 1.4391,-1.125117 1.884639,-1.885156 0.48332,-0.824469 0.737419,-1.693253 0.737419,-2.622062 0,-0.928799 -0.277569,-1.756461 -0.737419,-2.540931 -0.469729,-0.801309 -1.076549,-1.426729 -1.884639,-1.884639 -0.30028,-0.170157 -0.604597,-0.313032 -0.914673,-0.426847 v -6.159831 c 0.314189,-0.10089 0.619589,-0.232756 0.914673,-0.399976 0.831516,-0.471189 1.439101,-1.125117 1.884639,-1.885156 0.48332,-0.824459 0.737419,-1.693253 0.737419,-2.622062 0,-0.928799 -0.277569,-1.756461 -0.737419,-2.54093 -0.469728,-0.801309 -1.07655,-1.42673 -1.884639,-1.88464 -0.831497,-0.471179 -1.694283,-0.737422 -2.623096,-0.737422 z m 0,2.703711 c 0.452579,0 0.878631,0.120078 1.277958,0.359667 0.39934,0.21298 0.70584,0.518941 0.918807,0.918291 0.239611,0.372709 0.359152,0.785587 0.359152,1.238167 0,0.45256 -0.119542,0.878649 -0.359152,1.277958 -0.212967,0.37272 -0.519467,0.678691 -0.918807,0.91829 -0.399336,0.21296 -0.825379,0.319361 -1.277958,0.319361 -0.452558,0 -0.878638,-0.106381 -1.277958,-0.319361 -0.39935,-0.239599 -0.718471,-0.54557 -0.958081,-0.91829 -0.212959,-0.399319 -0.31936,-0.825398 -0.31936,-1.277958 0,-0.45258 0.10639,-0.865458 0.31936,-1.238167 0.23961,-0.39935 0.558731,-0.705301 0.958081,-0.918291 0.399331,-0.239589 0.8254,-0.359667 1.277958,-0.359667 z m -56.578458,7.368025 v 24.069844 h 3.417362 v -8.877489 h 4.308781 c 2.005797,0 3.689927,-0.346881 5.051888,-1.040247 1.386723,-0.718119 2.414417,-1.671148 3.083016,-2.859774 0.693362,-1.188619 1.03973,-2.513422 1.03973,-3.974434 0,-1.461012 -0.333924,-2.736551 -1.002523,-3.826123 -0.668599,-1.114326 -1.671921,-1.968839 -3.009119,-2.563151 -1.337198,-0.619073 -2.959107,-0.928626 -4.865853,-0.928626 z m 21.618318,0 v 24.069844 h 3.417363 v -9.397354 h 3.565673 l 6.946347,9.397354 h 3.937227 v -0.22272 l -7.169072,-9.546188 c 1.287672,-0.32192 2.365142,-0.829545 3.231845,-1.522904 0.866702,-0.718126 1.510178,-1.560192 1.931148,-2.525944 0.445732,-0.965753 0.668693,-2.018338 0.668693,-3.15743 0,-1.411492 -0.334441,-2.649697 -1.00304,-3.714502 -0.643836,-1.064806 -1.621752,-1.893914 -2.934188,-2.488221 -1.287672,-0.594312 -2.872766,-0.891935 -4.754748,-0.891935 z m 52.054184,0 v 24.069844 h 15.22956 v -2.897493 h -11.81219 v -7.948869 h 9.80612 v -2.822566 h -9.80612 v -7.503418 h 11.81219 v -2.897498 z m 19.94659,0 v 24.069844 h 6.612 c 2.6744,0 5.002,-0.43347 6.98304,-1.30017 1.98103,-0.86671 3.51635,-2.191514 4.60592,-3.974439 1.11433,-1.807698 1.67121,-4.061153 1.67121,-6.76031 0,-4.209696 -1.0894,-7.267889 -3.26853,-9.174634 -2.15437,-1.906745 -5.27427,-2.860291 -9.36016,-2.860291 z m 24.58971,0 v 24.069844 h 15.22905 v -2.897493 h -11.81168 v -7.948869 h 9.80612 v -2.822566 h -9.80612 v -7.503418 h 11.81168 v -2.897498 z m -69.252618,1.935799 c -0.420965,0 -0.817117,0.111487 -1.188558,0.334347 -0.371453,0.19812 -0.668551,0.482752 -0.891418,0.854211 -0.198097,0.34668 -0.297139,0.730382 -0.297139,1.151351 0,0.42096 0.09904,0.817635 0.297139,1.189075 0.222867,0.3467 0.519965,0.631342 0.891418,0.854211 0.371434,0.1981 0.767593,0.29714 1.188558,0.29714 0.420973,0 0.817111,-0.09906 1.188558,-0.29714 0.371448,-0.222869 0.656632,-0.507511 0.854729,-0.854211 0.222874,-0.37142 0.334346,-0.768115 0.334346,-1.189075 0,-0.420969 -0.111472,-0.804671 -0.334346,-1.151351 -0.198097,-0.371469 -0.483281,-0.656101 -0.854729,-0.854211 -0.37144,-0.22286 -0.767585,-0.334347 -1.188558,-0.334347 z m 15.244548,0 c -0.42097,0 -0.81712,0.111487 -1.18856,0.334347 -0.37145,0.19812 -0.66855,0.482752 -0.89142,0.854211 -0.1981,0.34668 -0.29714,0.730382 -0.29714,1.151351 0,0.42096 0.0991,0.817635 0.29714,1.189075 0.22287,0.3467 0.51997,0.631342 0.89142,0.854211 0.37143,0.1981 0.76759,0.29714 1.18856,0.29714 0.42097,0 0.81711,-0.09906 1.18856,-0.29714 0.37145,-0.222869 0.65663,-0.507511 0.85473,-0.854211 0.22288,-0.37142 0.33383,-0.768115 0.33383,-1.189075 0,-0.420969 -0.11095,-0.804671 -0.33383,-1.151351 -0.1981,-0.371469 -0.48328,-0.656101 -0.85473,-0.854211 -0.37144,-0.22286 -0.76759,-0.334347 -1.18856,-0.334347 z m -60.78337,0.961699 h 4.532023 c 1.782931,0 3.11966,0.396139 4.011125,1.188558 0.916228,0.767646 1.374593,1.894377 1.374593,3.380155 0,1.535299 -0.495181,2.723735 -1.485698,3.565674 -0.965753,0.841939 -2.426923,1.262972 -4.383195,1.262972 H 41.69823 Z m 21.618319,0 h 4.345988 c 1.708642,0 2.99611,0.371258 3.862813,1.114144 0.891465,0.742892 1.337386,1.820358 1.337386,3.231844 0,1.461012 -0.483253,2.600183 -1.449007,3.417362 -0.940991,0.792413 -2.339941,1.188558 -4.19716,1.188558 h -3.90002 z m 72.000771,0 h 3.90002 c 3.07061,0 5.33651,0.743026 6.79752,2.228804 1.46101,1.461012 2.1916,3.763732 2.1916,6.908623 0,2.377244 -0.40859,4.234554 -1.22577,5.571752 -0.81718,1.337192 -1.95635,2.265851 -3.41736,2.785877 -1.46101,0.520019 -3.28099,0.779797 -5.46013,0.779797 h -2.78588 z m -50.635667,5.653918 c -0.45256,0 -0.878629,0.119562 -1.277958,0.359151 -0.39935,0.21299 -0.718472,0.519458 -0.958081,0.918807 -0.21297,0.37271 -0.319361,0.785071 -0.319361,1.237651 0,0.45256 0.106401,0.878629 0.319361,1.277958 0.239609,0.37272 0.558731,0.679197 0.958081,0.918807 0.399319,0.21298 0.825398,0.31936 1.277958,0.31936 0.452579,0 0.878618,-0.1064 1.277958,-0.31936 0.39934,-0.23961 0.70532,-0.546087 0.91829,-0.918807 0.23961,-0.399319 0.359668,-0.825398 0.359668,-1.277958 0,-0.45258 -0.120058,-0.864941 -0.359668,-1.237651 -0.21297,-0.399349 -0.51895,-0.705827 -0.91829,-0.918807 -0.39933,-0.239589 -0.825379,-0.359151 -1.277958,-0.359151 z m 10.177673,0 c 0.452579,0 0.87863,0.120078 1.277958,0.359668 0.39934,0.21298 0.705839,0.518941 0.918807,0.91829 0.239611,0.37271 0.359152,0.785588 0.359152,1.238168 0,0.452559 -0.119542,0.878638 -0.359152,1.277958 -0.212968,0.37272 -0.519467,0.67868 -0.918807,0.91829 -0.399337,0.21296 -0.825379,0.31936 -1.277958,0.31936 -0.452559,0 -0.878638,-0.10638 -1.277958,-0.31936 -0.39935,-0.23961 -0.718471,-0.54557 -0.958081,-0.91829 -0.212959,-0.39933 -0.31936,-0.825399 -0.31936,-1.277958 0,-0.45258 0.10639,-0.865458 0.31936,-1.238168 0.23961,-0.399349 0.558731,-0.7053 0.958081,-0.91829 0.399331,-0.23959 0.825399,-0.359668 1.277958,-0.359668 z m 10.177674,0 c -0.45256,0 -0.87811,0.119562 -1.27744,0.359151 -0.39935,0.21299 -0.71899,0.519458 -0.9586,0.918807 -0.21297,0.37271 -0.31936,0.785071 -0.31936,1.237651 0,0.45256 0.1064,0.878629 0.31936,1.277958 0.23961,0.37272 0.55925,0.679197 0.9586,0.918807 0.39932,0.21298 0.82488,0.31936 1.27744,0.31936 0.45258,0 0.87862,-0.1064 1.27796,-0.31936 0.39934,-0.23961 0.70583,-0.546087 0.9188,-0.918807 0.23961,-0.399319 0.35916,-0.825398 0.35916,-1.277958 0,-0.45258 -0.11955,-0.864941 -0.35916,-1.237651 -0.21297,-0.399349 -0.51946,-0.705827 -0.9188,-0.918807 -0.39933,-0.239589 -0.82538,-0.359151 -1.27796,-0.359151 z m -17.799431,6.967017 c -0.420972,0 -0.817117,0.111487 -1.188558,0.334346 -0.371447,0.19811 -0.65663,0.483259 -0.854728,0.854729 -0.222874,0.346679 -0.334346,0.730391 -0.334346,1.15135 0,0.42097 0.111472,0.817129 0.334346,1.188558 0.198098,0.3467 0.483281,0.631352 0.854728,0.854212 0.371448,0.19809 0.767586,0.297139 1.188558,0.297139 0.420966,0 0.817125,-0.09903 1.188558,-0.297139 0.371455,-0.22286 0.668552,-0.507512 0.891419,-0.854212 0.198093,-0.371439 0.297139,-0.767588 0.297139,-1.188558 0,-0.420959 -0.09904,-0.804671 -0.297139,-1.15135 -0.222867,-0.37146 -0.519964,-0.656609 -0.891419,-0.854729 -0.37144,-0.222859 -0.767592,-0.334346 -1.188558,-0.334346 z m 15.244031,0 c -0.42097,0 -0.81712,0.111487 -1.18856,0.334346 -0.37146,0.19812 -0.66855,0.483269 -0.89142,0.854729 -0.1981,0.346679 -0.29714,0.730391 -0.29714,1.15135 0,0.42097 0.0991,0.817119 0.29714,1.188558 0.22287,0.3467 0.51997,0.631352 0.89142,0.854212 0.37143,0.19811 0.76759,0.297139 1.18856,0.297139 0.42097,0 0.81711,-0.09905 1.18856,-0.297139 0.37145,-0.22286 0.65663,-0.507512 0.85473,-0.854212 0.22288,-0.371429 0.33383,-0.767588 0.33383,-1.188558 0,-0.420959 -0.11095,-0.804671 -0.33383,-1.15135 -0.1981,-0.37147 -0.48329,-0.656619 -0.85473,-0.854729 -0.37144,-0.222859 -0.76759,-0.334346 -1.18856,-0.334346 z" />
    <path
       id="path632"
       style="font-size:52.5464px;font-family:Dubai;-inkscape-font-specification:Dubai;fill:#000000;fill-opacity:1;stroke-width:108.051;paint-order:markers stroke fill"
       d="m 104.99953,153.98853 c -0.9288,0 -1.7911,0.26625 -2.62258,0.73743 -0.80809,0.45793 -1.48347,1.06012 -1.9668,1.88464 -0.445519,0.76001 -0.655257,1.61213 -0.655257,2.54093 0,0.9288 0.185548,1.8208 0.655257,2.62206 0.45987,0.7845 1.13527,1.41395 1.9668,1.88515 0.29474,0.16702 0.59992,0.29861 0.91364,0.39946 v 6.16087 c -0.30961,0.11375 -0.61371,0.25637 -0.91364,0.42633 -0.80809,0.45793 -1.48347,1.06012 -1.9668,1.88464 -0.44552,0.76002 -0.655257,1.61213 -0.655257,2.54093 0,0.92881 0.185547,1.82079 0.655257,2.62206 0.45987,0.7845 1.13527,1.41396 1.9668,1.88516 0.29475,0.16702 0.59992,0.29912 0.91364,0.39997 v 8.15196 h 3.41737 v -8.15144 c 0.31419,-0.10089 0.61958,-0.23327 0.91467,-0.40049 0.83152,-0.47119 1.4391,-1.12512 1.88464,-1.88516 0.48332,-0.82447 0.73742,-1.69325 0.73742,-2.62206 0,-0.9288 -0.27757,-1.75646 -0.73742,-2.54093 -0.46973,-0.80131 -1.07655,-1.42673 -1.88464,-1.88464 -0.30028,-0.17016 -0.6046,-0.31303 -0.91467,-0.42685 v -6.15983 c 0.31419,-0.10089 0.61959,-0.23276 0.91467,-0.39998 0.83152,-0.47119 1.4391,-1.12511 1.88464,-1.88515 0.48332,-0.82446 0.73742,-1.69326 0.73742,-2.62206 0,-0.9288 -0.27757,-1.75647 -0.73742,-2.54093 -0.46973,-0.80131 -1.07655,-1.42673 -1.88464,-1.88464 -0.8315,-0.47118 -1.69428,-0.73743 -2.6231,-0.73743 z m 0,2.70371 c 0.45258,0 0.87863,0.12008 1.27796,0.35967 0.39934,0.21298 0.70584,0.51894 0.91881,0.91829 0.23961,0.37271 0.35915,0.78559 0.35915,1.23817 0,0.45256 -0.11954,0.87865 -0.35915,1.27796 -0.21297,0.37272 -0.51947,0.67869 -0.91881,0.91829 -0.39933,0.21296 -0.82538,0.31936 -1.27796,0.31936 -0.45255,0 -0.87863,-0.10638 -1.27795,-0.31936 -0.39935,-0.2396 -0.71848,-0.54557 -0.95809,-0.91829 -0.21296,-0.39932 -0.31936,-0.8254 -0.31936,-1.27796 0,-0.45258 0.10639,-0.86546 0.31936,-1.23817 0.23961,-0.39935 0.55874,-0.7053 0.95809,-0.91829 0.39933,-0.23959 0.8254,-0.35967 1.27795,-0.35967 z m -7.62227,9.30383 c -0.420965,0 -0.817117,0.11149 -1.188558,0.33435 -0.371453,0.19812 -0.668551,0.48275 -0.891418,0.85421 -0.198097,0.34668 -0.297139,0.7309 -0.297139,1.15186 0,0.42096 0.09904,0.81712 0.297139,1.18856 0.222867,0.3467 0.519965,0.63134 0.891418,0.85421 0.371434,0.1981 0.767593,0.29714 1.188558,0.29714 0.420973,0 0.817111,-0.0991 1.188558,-0.29714 0.371448,-0.22287 0.656632,-0.50751 0.854729,-0.85421 0.222874,-0.37142 0.334346,-0.7676 0.334346,-1.18856 0,-0.42096 -0.111472,-0.80518 -0.334346,-1.15186 -0.198097,-0.37147 -0.483281,-0.6561 -0.854729,-0.85421 -0.37144,-0.22286 -0.767585,-0.33435 -1.188558,-0.33435 z m 15.24455,0 c -0.42097,0 -0.81712,0.11149 -1.18856,0.33435 -0.37145,0.19812 -0.66855,0.48275 -0.89142,0.85421 -0.1981,0.34668 -0.29714,0.7309 -0.29714,1.15186 0,0.42096 0.0991,0.81712 0.29714,1.18856 0.22287,0.3467 0.51997,0.63134 0.89142,0.85421 0.37143,0.1981 0.76759,0.29714 1.18856,0.29714 0.42097,0 0.81711,-0.0991 1.18856,-0.29714 0.37145,-0.22287 0.65663,-0.50751 0.85473,-0.85421 0.22288,-0.37142 0.33383,-0.7676 0.33383,-1.18856 0,-0.42096 -0.11095,-0.80518 -0.33383,-1.15186 -0.1981,-0.37147 -0.48328,-0.6561 -0.85473,-0.85421 -0.37144,-0.22286 -0.76759,-0.33435 -1.18856,-0.33435 z m -17.799949,6.61562 c -0.45256,0 -0.878629,0.12007 -1.277958,0.35966 -0.39935,0.21299 -0.718472,0.51894 -0.958081,0.91829 -0.21297,0.37271 -0.319361,0.78559 -0.319361,1.23817 0,0.45256 0.106401,0.87863 0.319361,1.27796 0.239609,0.37272 0.558731,0.67868 0.958081,0.91829 0.399319,0.21298 0.825398,0.31936 1.277958,0.31936 0.452579,0 0.878618,-0.1064 1.277958,-0.31936 0.39934,-0.23961 0.70532,-0.54557 0.91829,-0.91829 0.23961,-0.39932 0.359668,-0.8254 0.359668,-1.27796 0,-0.45258 -0.120058,-0.86546 -0.359668,-1.23817 -0.21297,-0.39935 -0.51895,-0.70531 -0.91829,-0.91829 -0.39933,-0.23959 -0.825379,-0.35966 -1.277958,-0.35966 z m 10.177669,0 c 0.45258,0 0.87863,0.12007 1.27796,0.35966 0.39934,0.21298 0.70584,0.51894 0.91881,0.91829 0.23961,0.37271 0.35915,0.78559 0.35915,1.23817 0,0.45256 -0.11954,0.87864 -0.35915,1.27796 -0.21297,0.37272 -0.51947,0.67868 -0.91881,0.91829 -0.39934,0.21296 -0.82538,0.31936 -1.27796,0.31936 -0.45256,0 -0.87863,-0.10638 -1.27795,-0.31936 -0.39935,-0.23961 -0.71848,-0.54557 -0.95809,-0.91829 -0.21296,-0.39933 -0.31936,-0.8254 -0.31936,-1.27796 0,-0.45258 0.10639,-0.86546 0.31936,-1.23817 0.23961,-0.39935 0.55874,-0.7053 0.95809,-0.91829 0.39933,-0.23959 0.82539,-0.35966 1.27795,-0.35966 z m 10.17768,0 c -0.45256,0 -0.87811,0.12007 -1.27744,0.35966 -0.39935,0.21299 -0.71899,0.51894 -0.9586,0.91829 -0.21297,0.37271 -0.31936,0.78559 -0.31936,1.23817 0,0.45256 0.1064,0.87863 0.31936,1.27796 0.23961,0.37272 0.55925,0.67868 0.9586,0.91829 0.39932,0.21298 0.82488,0.31936 1.27744,0.31936 0.45258,0 0.87862,-0.1064 1.27796,-0.31936 0.39934,-0.23961 0.70583,-0.54557 0.9188,-0.91829 0.23961,-0.39932 0.35916,-0.8254 0.35916,-1.27796 0,-0.45258 -0.11955,-0.86546 -0.35916,-1.23817 -0.21297,-0.39935 -0.51946,-0.70531 -0.9188,-0.91829 -0.39933,-0.23959 -0.82538,-0.35966 -1.27796,-0.35966 z m -17.799433,6.96753 c -0.420972,0 -0.817117,0.11097 -1.188558,0.33383 -0.371447,0.19811 -0.65663,0.48326 -0.854728,0.85473 -0.222874,0.34668 -0.334346,0.73039 -0.334346,1.15135 0,0.42097 0.111472,0.81713 0.334346,1.18856 0.198098,0.3467 0.483281,0.63135 0.854728,0.85421 0.371448,0.19809 0.767586,0.29714 1.188558,0.29714 0.420966,0 0.817125,-0.099 1.188558,-0.29714 0.371455,-0.22286 0.668552,-0.50751 0.891419,-0.85421 0.198093,-0.37144 0.297139,-0.76759 0.297139,-1.18856 0,-0.42096 -0.09904,-0.80467 -0.297139,-1.15135 -0.222867,-0.37146 -0.519964,-0.65661 -0.891419,-0.85473 -0.37144,-0.22286 -0.767592,-0.33383 -1.188558,-0.33383 z m 15.244033,0 c -0.42097,0 -0.81712,0.11097 -1.18856,0.33383 -0.37146,0.19812 -0.66855,0.48327 -0.89142,0.85473 -0.1981,0.34668 -0.29714,0.73039 -0.29714,1.15135 0,0.42097 0.0991,0.81712 0.29714,1.18856 0.22287,0.3467 0.51997,0.63135 0.89142,0.85421 0.37143,0.19811 0.76759,0.29714 1.18856,0.29714 0.42097,0 0.81711,-0.0991 1.18856,-0.29714 0.37145,-0.22286 0.65663,-0.50751 0.85473,-0.85421 0.22288,-0.37143 0.33383,-0.76759 0.33383,-1.18856 0,-0.42096 -0.11095,-0.80467 -0.33383,-1.15135 -0.1981,-0.37147 -0.48329,-0.65662 -0.85473,-0.85473 -0.37144,-0.22286 -0.76759,-0.33383 -1.18856,-0.33383 z" />
  </g>
</svg>
