<?xml version="1.0" encoding="UTF-8" standalone="no"?>
<!DOCTYPE svg PUBLIC "-//W3C//DTD SVG 1.1//EN" "http://www.w3.org/Graphics/SVG/1.1/DTD/svg11.dtd">
<svg width="100%" height="100%" viewBox="0 0 73 97" version="1.1" xmlns="http://www.w3.org/2000/svg" xmlns:xlink="http://www.w3.org/1999/xlink" xml:space="preserve" xmlns:serif="http://www.serif.com/" style="fill-rule:evenodd;clip-rule:evenodd;stroke-linejoin:round;stroke-miterlimit:2;">
    <g transform="matrix(1,0,0,1,-232.798,-298.503)">
        <path id="path4008" d="M268.893,298.503C266.26,298.503 263.815,299.258 261.458,300.593C259.168,301.891 257.253,303.598 255.883,305.936C254.62,308.09 254.026,310.505 254.026,313.138C254.026,315.771 254.552,318.299 255.883,320.571C257.187,322.795 259.101,324.579 261.458,325.915C262.294,326.388 263.159,326.761 264.048,327.047L264.048,345.463L273.735,345.999L273.735,327.048C274.626,326.762 275.492,326.389 276.328,325.915C278.685,324.579 280.407,322.725 281.67,320.571C283.04,318.234 283.761,315.771 283.761,313.138C283.761,310.505 282.974,308.159 281.67,305.936C280.339,303.664 278.619,301.891 276.328,300.593C273.971,299.258 271.525,298.503 268.893,298.503ZM268.893,306.167C270.175,306.167 271.383,306.507 272.515,307.187C273.647,307.79 274.516,308.658 275.12,309.79C275.799,310.846 276.138,312.016 276.138,313.299C276.138,314.582 275.799,315.79 275.12,316.922C274.516,317.978 273.647,318.846 272.515,319.525C271.383,320.129 270.175,320.43 268.893,320.43C267.61,320.43 266.402,320.129 265.27,319.525C264.138,318.846 263.233,317.978 262.554,316.922C261.951,315.79 261.649,314.582 261.649,313.299C261.649,312.016 261.951,310.846 262.554,309.79C263.233,308.658 264.138,307.79 265.27,307.187C266.402,306.507 267.61,306.167 268.893,306.167ZM273.735,367.002L264.048,367.4L264.048,395.282L273.735,395.282L273.735,367.002Z" style="fill:white;fill-rule:nonzero;"/>
        <path id="path4010" d="M247.286,332.54C246.093,332.54 244.97,332.856 243.917,333.488C242.864,334.049 242.022,334.857 241.39,335.91C240.829,336.893 240.548,337.98 240.548,339.174C240.548,340.367 240.829,341.49 241.39,342.543C242.022,343.526 242.864,344.333 243.917,344.965C244.97,345.527 246.093,345.807 247.286,345.807C248.48,345.807 249.603,345.527 250.656,344.965C251.709,344.333 252.516,343.526 253.078,342.543C253.71,341.49 254.025,340.367 254.025,339.174C254.025,337.98 253.71,336.893 253.078,335.91C252.516,334.857 251.709,334.049 250.656,333.488C249.603,332.856 248.48,332.54 247.286,332.54Z" style="fill:white;fill-rule:nonzero;"/>
        <path id="path4022" d="M268.893,343.629C266.26,343.629 263.815,344.384 261.458,345.719C259.168,347.017 257.253,348.724 255.883,351.062C254.62,353.216 254.026,355.631 254.026,358.264C254.026,360.897 254.552,363.425 255.883,365.697C257.187,367.921 259.101,369.705 261.458,371.041C263.749,372.339 266.26,372.899 268.893,372.899C271.525,372.899 274.038,372.339 276.328,371.041C278.685,369.705 280.407,367.851 281.67,365.697C283.04,363.36 283.761,360.897 283.761,358.264C283.761,355.631 282.974,353.285 281.67,351.062C280.339,348.79 278.619,347.017 276.328,345.719C273.971,344.384 271.525,343.629 268.893,343.629ZM268.893,351.293C270.175,351.293 271.383,351.633 272.515,352.312C273.647,352.916 274.516,353.784 275.12,354.916C275.799,355.972 276.138,357.142 276.138,358.425C276.138,359.708 275.799,360.916 275.12,362.048C274.516,363.104 273.647,363.972 272.515,364.651C271.383,365.255 270.175,365.556 268.893,365.556C267.61,365.556 266.402,365.255 265.27,364.651C264.138,363.972 263.233,363.104 262.554,362.048C261.951,360.916 261.649,359.708 261.649,358.425C261.649,357.142 261.951,355.972 262.554,354.916C263.233,353.784 264.138,352.916 265.27,352.312C266.402,351.633 267.61,351.293 268.893,351.293Z" style="fill:white;fill-rule:nonzero;"/>
        <path id="path4024" d="M290.499,332.54C289.306,332.54 288.182,332.856 287.13,333.488C286.077,334.049 285.235,334.857 284.603,335.91C284.041,336.893 283.761,337.98 283.761,339.174C283.761,340.367 284.042,341.49 284.603,342.543C285.235,343.526 286.077,344.333 287.13,344.965C288.182,345.527 289.306,345.807 290.499,345.807C291.692,345.807 292.816,345.527 293.869,344.965C294.921,344.333 295.729,343.526 296.29,342.543C296.922,341.49 297.238,340.367 297.238,339.174C297.238,337.98 296.922,336.893 296.29,335.91C295.729,334.857 294.921,334.049 293.869,333.488C292.816,332.856 291.692,332.54 290.499,332.54Z" style="fill:white;fill-rule:nonzero;"/>
        <path id="path4028" d="M247.287,371.043C248.481,371.043 249.604,371.359 250.657,371.99C251.71,372.552 252.552,373.359 253.183,374.412C253.745,375.395 254.025,376.483 254.025,377.676C254.025,378.869 253.745,379.993 253.183,381.046C252.552,382.028 251.71,382.836 250.657,383.468C249.604,384.029 248.481,384.309 247.287,384.309C246.094,384.309 244.971,384.029 243.918,383.468C242.865,382.836 242.058,382.028 241.496,381.046C240.864,379.993 240.548,378.869 240.548,377.676C240.548,376.483 240.864,375.395 241.496,374.412C242.058,373.359 242.865,372.552 243.918,371.99C244.971,371.359 246.094,371.043 247.287,371.043Z" style="fill:white;fill-rule:nonzero;"/>
        <path id="path4030" d="M297.743,351.294C296.46,351.294 295.253,351.633 294.121,352.312C292.989,352.916 292.084,353.784 291.405,354.916C290.801,355.972 290.5,357.142 290.5,358.425C290.5,359.708 290.801,360.915 291.405,362.047C292.084,363.104 292.989,363.972 294.121,364.651C295.253,365.255 296.46,365.556 297.743,365.556C299.026,365.556 300.234,365.255 301.366,364.651C302.498,363.972 303.366,363.104 303.97,362.047C304.649,360.915 304.988,359.708 304.988,358.425C304.988,357.142 304.649,355.972 303.97,354.916C303.366,353.784 302.498,352.916 301.366,352.312C300.234,351.633 299.026,351.294 297.743,351.294Z" style="fill:white;fill-rule:nonzero;"/>
        <path id="path4032" d="M290.499,371.043C289.306,371.043 288.182,371.359 287.13,371.99C286.077,372.552 285.235,373.359 284.603,374.412C284.041,375.395 283.761,376.483 283.761,377.676C283.761,378.869 284.042,379.993 284.603,381.046C285.235,382.028 286.077,382.836 287.13,383.468C288.182,384.029 289.306,384.309 290.499,384.309C291.692,384.309 292.816,384.029 293.869,383.468C294.921,382.836 295.729,382.028 296.29,381.046C296.922,379.993 297.238,378.869 297.238,377.676C297.238,376.483 296.922,375.395 296.29,374.412C295.729,373.359 294.921,372.552 293.869,371.99C292.816,371.359 291.692,371.043 290.499,371.043Z" style="fill:white;fill-rule:nonzero;"/>
        <path id="path542" d="M240.042,351.294C238.759,351.294 237.552,351.633 236.42,352.312C235.288,352.916 234.383,353.784 233.704,354.916C233.1,355.972 232.798,357.142 232.798,358.425C232.798,359.708 233.1,360.915 233.704,362.047C234.383,363.104 235.288,363.972 236.42,364.651C237.552,365.255 238.759,365.556 240.042,365.556C241.325,365.556 242.533,365.255 243.665,364.651C244.797,363.972 245.665,363.104 246.268,362.047C246.948,360.915 247.287,359.708 247.287,358.425C247.287,357.142 246.948,355.972 246.268,354.916C245.665,353.784 244.797,352.916 243.665,352.312C242.533,351.633 241.325,351.294 240.042,351.294Z" style="fill:white;fill-rule:nonzero;"/>
    </g>
</svg>
